<svg xmlns="http://www.w3.org/2000/svg" enable-background="new 0 0 68 68" viewBox="0 0 68 68"><path d="M65.25621,19.37898c-1.02808-1.60303-2.58862-2.7749-3.92896-4.12744c-1.03564-1.04541-1.96069-2.21973-3.16284-3.06836
		c-0.38867-0.27393-0.80542-0.50146-1.23657-0.69971c-0.42578,0.39746-2.97144,2.89355-2.45142,5.2998
		c0.08789,0.4043-0.16943,0.80371-0.57422,0.8916c-0.05371,0.01123-0.10693,0.0166-0.15918,0.0166
		c-0.3457,0-0.65674-0.24023-0.73242-0.5918c-0.55957-2.58691,1.28662-5.01611,2.33032-6.14502
		c-0.68506-0.1626-1.38525-0.26563-2.08862-0.26758c-0.97168-0.00293-1.95361,0.13818-2.90894-0.03955
		c-0.59595-0.11084-1.15991-0.34082-1.72949-0.55176c-3.88916-4.26611-9.44678-7.11914-15.39795-7.72022
		C18.86714,0.91895,7.17198,12.23326,7.17198,25.84187c0,0.74512,0.03467,1.49121,0.10303,2.2168
		c0.12988,1.39551-0.1626,2.85156-0.84668,4.21191l-4.70508,9.354c-0.70442,1.3995,0.31148,3.05322,1.88184,3.05322h4.04639
		c0.33447,0,0.60644,0.27246,0.60644,0.60645v6.53613c0,2.89697,2.35645,5.25391,5.25342,5.25391h4.13867
		c0.33447,0,0.60645,0.27197,0.60645,0.60645v4.7373c0,1.83789,1.49512,3.33301,3.33301,3.33301H40.6378
		c1.83789,0,3.33301-1.49512,3.33301-3.33301v-7.55469c0-0.51904,0.10205-1.02539,0.3042-1.50391
		c0.00244-0.00586,0.00488-0.01172,0.00684-0.01758c0.10547-0.25977,4.43701-10.87793,6.91357-15.73535
		c0.00391-0.00684,0.00732-0.01416,0.01074-0.02148c0.97607-2.07178,1.68433-4.03564,2.17871-5.89355
		c0.13013-0.06885,0.26245-0.13379,0.40332-0.18115c0.34912-0.1167,0.71313-0.14453,1.08179-0.13623
		c-0.15332-1.11084-0.31274-4.4585,2.729-7.17871c0.30859-0.27637,0.7832-0.24902,1.05908,0.05957s0.24951,0.78271-0.05908,1.05859
		c-2.94287,2.63184-2.23438,5.96143-2.20264,6.10156c0.00537,0.02393-0.00146,0.04639,0.00146,0.07031
		c4.39014,0.26904,8.9646-1.51367,9.94458-6.21826C66.75963,23.26326,66.36095,21.10213,65.25621,19.37898z M48.90465,22.43758
		c-0.26025,0.32227-0.73242,0.37207-1.0542,0.11279c-0.95117-0.76709-2.01074-1.09814-3.06689-0.95459
		c-1.20361,0.16211-2.33789,0.90723-3.19434,2.09766c-0.14648,0.2041-0.37646,0.3125-0.60938,0.3125
		c-0.15186,0-0.30518-0.0459-0.4375-0.1416c-0.33643-0.2417-0.4126-0.71045-0.1709-1.04688
		c1.1001-1.52832,2.59521-2.49023,4.21143-2.7085c1.47461-0.19922,2.9292,0.2417,4.20898,1.27393
		C49.11461,21.64265,49.1649,22.11531,48.90465,22.43758z M49.85411,36.93562c-1.31592,2.58203-3.13867,6.75146-4.43701,9.7959
		c-1.63867,3.84424-2.28906,5.37012-2.48926,6.06055l-0.03564-0.01465c-0.27979,0.66406-0.42139,1.36621-0.42139,2.08594v4.21289
		H19.75645v-1.39551c0-1.16162-0.94482-2.10645-2.10645-2.10645h-4.13867c-2.06982,0-3.75342-1.68408-3.75342-3.75391v-6.53613
		c0-1.16113-0.94482-2.10645-2.10644-2.10645H3.60509c-0.45149,0-0.74514-0.47477-0.54199-0.87891l4.70508-9.35449
		c0.81055-1.61182,1.15625-3.34961,1-5.02539c-0.06396-0.68018-0.09619-1.37891-0.09619-2.07715
		c0-12.65071,10.84645-23.33645,24.39355-21.97412c4.79565,0.48486,9.31689,2.52539,12.80566,5.62109
		c-0.88672-0.06494-1.78149-0.01611-2.65161,0.16699c-1.30371,0.27441-2.53467,0.81982-3.82251,1.16211
		c-1.22876,0.32666-2.50391,0.46729-3.71826,0.84424c-0.4021,0.12451-0.79297,0.28223-1.17554,0.45752
		c1.38354,0.41162,3.2998,1.52344,5.0874,4.42871c0.21729,0.35303,0.10693,0.81494-0.24561,1.03174
		c-0.12256,0.0752-0.2583,0.11133-0.39258,0.11133c-0.25146,0-0.49756-0.12695-0.63916-0.35693
		c-2.65869-4.31982-5.39355-3.95166-5.50732-3.93506c-0.11914,0.01904-0.23315,0.00146-0.34082-0.03223
		c-0.64429,0.50928-1.22925,1.09375-1.72803,1.74609c-0.92188,1.20654-1.55322,2.604-2.29346,3.92969
		c-0.73877,1.32324-1.60205,2.60742-1.99048,4.07227c-0.06396,0.24121-0.11377,0.48584-0.14966,0.73242
		c-0.27002,1.84766,0.24414,3.79199,1.3374,5.31445c0.97192-1.06299,3.58057-3.48291,6.55957-2.62598
		c0.39844,0.11426,0.62842,0.5293,0.51367,0.92773c-0.11426,0.39844-0.53271,0.62842-0.92773,0.51367
		c-2.28174-0.65527-4.48926,1.57715-5.15381,2.32861c0.79785,0.7749,1.71826,1.43018,2.63135,2.07275
		c1.20801,0.85059,2.41602,1.70117,3.62402,2.55127c0.19507,0.13721,0.39819,0.28369,0.50244,0.49854
		c0.12207,0.25146,0.08594,0.54834,0.03394,0.82324c-0.15649,0.82666-0.4314,1.63135-0.81372,2.38086
		c-0.20801,0.40771-0.41602,0.98145-0.04858,1.25439c0.15503,0.11475,0.36206,0.12256,0.55493,0.125
		c0.93335,0.01416,1.8667,0.02783,2.80029,0.0415c0.41602,0.00586,0.85278,0.00732,1.21948-0.18945
		c0.35132-0.18799,0.58765-0.53076,0.81958-0.85547c1.15381-1.61377,2.59204-3.09277,4.29004-4.0835
		c-0.0105-0.04736-0.03027-0.09131-0.03125-0.14209c-0.00293-0.11523-0.1001-2.80566-2.68701-3.27051
		c-0.40771-0.07324-0.6792-0.46289-0.60596-0.87061c0.07373-0.40771,0.46582-0.67822,0.87061-0.60596
		c2.71118,0.48682,3.6792,2.72998,3.87793,4.20264c0.27344-0.10352,0.54932-0.20166,0.83398-0.27734
		c1.63672-0.43506,3.43433-0.396,4.95581-1.07813C51.03844,34.18269,50.51549,35.52986,49.85411,36.93562z"/></svg>